# xmcd
#
# Track frame offsets:
#	150
#	20086
#	40815
#	61326
#	80426
#	99728
#	122274
#	148987
#	166750
#	188056
#	205301
#	226968
#	256815
#
# Disc length: 3799 seconds
#
# Revision: 1
# Processed by: cddbd v1.5.2PL0 Copyright (c) Steve Scherf et al.
# Submitted via: audiograbber 1.83.01
#
DISCID=ab0ed50d
DTITLE=Syran - Dehumanized
DYEAR=2007
DGENRE=Pop
TTITLE0=Syren - Dehumanized
TTITLE1=Syren - Seemingly Blissful
TTITLE2=Syren - Seasons
TTITLE3=Syren - Revenge
TTITLE4=Syren - Treasured ones
TTITLE5=Syren - Sapphic child
TTITLE6=Syren - Take to the stars
TTITLE7=Syren - Tybalt Jones
TTITLE8=Syren - Justice
TTITLE9=Syren - Green
TTITLE10=Syren - The way that lovers do
TTITLE11=Syren - Happy valley
TTITLE12=Syren - Virginia
EXTD=
EXTT0=
EXTT1=
EXTT2=
EXTT3=
EXTT4=
EXTT5=
EXTT6=
EXTT7=
EXTT8=
EXTT9=
EXTT10=
EXTT11=
EXTT12=
PLAYORDER=
